HIERARCHY
ROOT SpineBase
{
  OFFSET 0.000000 0.000000 0.000000
  CHANNELS 6 Xposition Yposition Zposition Zrotation Xrotation Yrotation
  JOINT SpineMid
  {
    OFFSET 0.000000 32.365739 0.000000
    CHANNELS 3 Zrotation Xrotation Yrotation
    JOINT SpineShoulder
    {
      OFFSET -0.232183 24.134409 -0.703970
      CHANNELS 3 Zrotation Xrotation Yrotation
      JOINT Neck
      {
        OFFSET -0.151439 8.019746 -0.543196
        CHANNELS 3 Zrotation Xrotation Yrotation
        JOINT Head
        {
          OFFSET -0.110010 12.005610 2.971405
          CHANNELS 3 Zrotation Xrotation Yrotation
          End Site
          {
            OFFSET 0 0 0
          }
        }
      }
      JOINT ShoulderLeft
      {
        OFFSET -16.112744 -6.849936 -7.196151
        CHANNELS 3 Zrotation Xrotation Yrotation
        JOINT ElbowLeft
        {
          OFFSET -6.299059 -28.132610 -0.099958
          CHANNELS 3 Zrotation Xrotation Yrotation
          JOINT WristLeft
          {
            OFFSET -2.316112 -22.660548 2.734049
            CHANNELS 3 Zrotation Xrotation Yrotation
            JOINT HandLeft
            {
              OFFSET 1.012020 -3.383145 0.782245
              CHANNELS 3 Zrotation Xrotation Yrotation
              JOINT HandTipLeft
              {
                OFFSET -0.605616 -5.606609 -0.818797
                CHANNELS 3 Zrotation Xrotation Yrotation
                End Site
                {
                  OFFSET 0 0 0
                }
              }
              JOINT ThumbLeft
              {
                OFFSET -2.869239 0.186450 -3.086899
                CHANNELS 3 Zrotation Xrotation Yrotation
                End Site
                {
                  OFFSET 0 0 0
                }
              }
            }
          }
        }
      }
      JOINT ShoulderRight
      {
        OFFSET 14.508672 -5.290460 -3.968485
        CHANNELS 3 Zrotation Xrotation Yrotation
        JOINT ElbowRight
        {
          OFFSET 6.824411 -30.041528 3.539476
          CHANNELS 3 Zrotation Xrotation Yrotation
          JOINT WristRight
          {
            OFFSET 0.642658 -22.672602 2.486288
            CHANNELS 3 Zrotation Xrotation Yrotation
            JOINT HandRight
            {
              OFFSET -1.077519 -2.672940 0.694827
              CHANNELS 3 Zrotation Xrotation Yrotation
              JOINT HandTipRight
              {
                OFFSET -0.735554 -4.230446 -1.524331
                CHANNELS 3 Zrotation Xrotation Yrotation
                End Site
                {
                  OFFSET 0 0 0
                }
              }
              JOINT ThumbRight
              {
                OFFSET -2.866820 2.169228 -2.215780
                CHANNELS 3 Zrotation Xrotation Yrotation
                End Site
                {
                  OFFSET 0 0 0
                }
              }
            }
          }
        }
      }
    }
  }
  JOINT HipLeft
  {
    OFFSET -6.960041 1.446845 -3.751777
    CHANNELS 3 Zrotation Xrotation Yrotation
    JOINT KneeLeft
    {
      OFFSET -4.574561 -36.591052 -2.962746
      CHANNELS 3 Zrotation Xrotation Yrotation
      JOINT AnkleLeft
      {
        OFFSET 0.906419 -34.328943 -2.842966
        CHANNELS 3 Zrotation Xrotation Yrotation
        JOINT FootLeft
        {
          OFFSET 0.325438 -2.507911 -12.253163
          CHANNELS 3 Zrotation Xrotation Yrotation
          End Site
          {
            OFFSET 0 0 0
          }
        }
      }
    }
  }
  JOINT HipRight
  {
    OFFSET 5.506695 1.331564 -2.504274
    CHANNELS 3 Zrotation Xrotation Yrotation
    JOINT KneeRight
    {
      OFFSET 2.702972 -36.708889 -1.589598
      CHANNELS 3 Zrotation Xrotation Yrotation
      JOINT AnkleRight
      {
        OFFSET -0.077294 -34.350630 -3.653879
        CHANNELS 3 Zrotation Xrotation Yrotation
        JOINT FootRight
        {
          OFFSET -2.198545 -7.262392 4.414228
          CHANNELS 3 Zrotation Xrotation Yrotation
          End Site
          {
            OFFSET 0 0 0
          }
        }
      }
    }
  }
}
MOTION
Frames: 12
Frame Time: 0.033333
60.831584 75.997313 270.639297 -0.684289 -0.871834 -8.717600 -0.079740 -0.048844 8.681594 0.051061 -0.068761 -0.036778 3.499050 0.329990 -0.665689 0.000000 0.000000 0.000000 2.042489 -3.329743 1.051410 -5.965860 -0.777736 -0.800455 30.317584 25.630523 4.759375 -29.360251 -18.979118 -15.881439 0.000000 0.000000 0.000000 0.000000 0.000000 0.000000 0.260654 -4.523039 -1.251951 -0.872682 -0.796193 1.007411 -40.604266 -28.902457 -4.777716 58.634521 4.807545 -25.066351 0.000000 0.000000 0.000000 0.000000 0.000000 0.000000 1.813729 2.048039 8.449574 -1.414648 -0.883855 0.213940 0.596621 -0.511065 -3.042193 0.000000 0.000000 0.000000 0.544329 0.965424 8.707807 -0.000000 0.000000 0.000000 123.814073 61.538735 -131.337862 0.000000 0.000000 0.000000
60.793394 75.954930 270.628899 -0.683832 -0.871942 -8.816115 -0.079213 -0.059061 8.779938 0.046965 -0.064961 -0.037052 3.585969 0.298825 -0.686417 0.000000 0.000000 0.000000 2.003243 -3.139637 1.007412 -5.284792 -1.070153 -0.712875 29.723316 30.395297 5.021874 -31.315857 -22.403767 -18.864467 0.000000 0.000000 0.000000 0.000000 0.000000 0.000000 0.624497 -4.743942 -1.248954 -1.232856 -0.495004 1.041371 -58.734168 -4.804072 -9.391569 76.232771 5.406514 -6.753307 0.000000 0.000000 0.000000 0.000000 0.000000 0.000000 1.704612 2.127583 8.546157 -1.322054 -0.975125 0.217547 0.631009 -0.521795 -3.216284 0.000000 0.000000 0.000000 0.542200 0.966396 8.806339 -0.000000 0.000000 0.000000 123.922729 61.454460 -131.144845 0.000000 0.000000 0.000000
60.750246 75.916192 270.615918 -0.690161 -0.867703 -8.928605 -0.070343 -0.067100 8.892272 0.047327 -0.061255 -0.036941 3.563570 0.201124 -0.679717 0.000000 0.000000 0.000000 1.993326 -2.977149 0.969115 -4.821974 -1.074647 -0.658347 18.569454 27.927790 5.748109 -22.243761 -24.086807 -14.252777 0.000000 0.000000 0.000000 0.000000 0.000000 0.000000 0.924828 -4.843767 -1.225679 -1.530545 -0.346008 1.048081 -62.450671 39.706417 -2.189122 77.901946 -3.669445 33.971045 0.000000 0.000000 0.000000 0.000000 0.000000 0.000000 1.678529 2.173935 8.654465 -1.300475 -1.025257 0.221692 0.675169 -0.536719 -3.440353 0.000000 0.000000 0.000000 0.547211 0.964252 8.918774 -0.000000 0.000000 0.000000 126.577315 59.989696 -134.715938 0.000000 0.000000 0.000000
60.697479 75.879145 270.601255 -0.697141 -0.856867 -9.051424 -0.058652 -0.075377 9.015062 0.049013 -0.057999 -0.036626 3.507408 0.106414 -0.665339 0.000000 0.000000 0.000000 2.046571 -2.812998 0.929978 -4.415163 -1.061402 -0.599726 7.465293 25.050231 5.832347 -4.123259 -23.288545 -7.506301 0.000000 0.000000 0.000000 0.000000 0.000000 0.000000 0.885594 -4.755077 -1.210477 -1.487029 -0.399154 1.029291 -62.433610 63.676804 3.681234 77.102584 -13.580954 55.456059 0.000000 0.000000 0.000000 0.000000 0.000000 0.000000 1.639273 2.231145 8.772088 -1.267372 -1.094460 0.227210 0.734919 -0.557925 -3.744188 0.000000 0.000000 0.000000 0.553741 0.955819 9.041592 -0.000000 0.000000 0.000000 123.500246 61.565505 -129.453836 0.000000 0.000000 0.000000
60.642566 75.852807 270.586486 -0.696938 -0.843864 -9.246450 -0.049694 -0.083551 9.210308 0.048294 -0.054955 -0.036263 3.473550 0.097770 -0.658502 0.000000 0.000000 0.000000 2.126244 -2.645035 0.889449 -4.051804 -0.996587 -0.543954 1.530852 23.980358 5.824716 3.542784 -24.450646 -4.465464 0.000000 0.000000 0.000000 0.000000 0.000000 0.000000 0.679588 -4.443167 -1.169431 -1.279210 -0.684244 0.965573 -46.121072 72.848576 -4.011848 67.720242 -22.906116 59.916310 0.000000 0.000000 0.000000 0.000000 0.000000 0.000000 1.579150 2.282127 8.963863 -1.222681 -1.160607 0.231602 0.806967 -0.585657 -4.111818 0.000000 0.000000 0.000000 0.552370 0.944832 9.236763 -0.000000 0.000000 0.000000 120.265057 62.867766 -124.089606 0.000000 0.000000 0.000000
60.575698 75.818382 270.567568 -0.712234 -0.823399 -9.494687 -0.037376 -0.091659 9.458371 0.051463 -0.052959 -0.036106 3.559180 0.062976 -0.679233 0.000000 0.000000 0.000000 2.245222 -2.523024 0.859146 -3.749358 -0.976952 -0.489210 -2.599475 22.823757 5.562380 12.987828 -24.325783 -1.373251 0.000000 0.000000 0.000000 0.000000 0.000000 0.000000 0.223849 -4.058383 -1.146764 -0.814348 -1.061590 0.902316 -29.945631 75.947420 -15.138333 61.716996 -27.845332 59.806929 0.000000 0.000000 0.000000 0.000000 0.000000 0.000000 1.506127 2.328622 9.211308 -1.151343 -1.230327 0.234593 0.875458 -0.612454 -4.462093 0.000000 0.000000 0.000000 0.566734 0.929554 9.484972 0.825665 0.437623 -0.091930 115.763033 64.090521 -118.524526 0.000000 0.000000 0.000000
60.503707 75.780293 270.549017 -0.736899 -0.802079 -9.811376 -0.027670 -0.099613 9.774508 0.055451 -0.052574 -0.036399 3.718626 0.055668 -0.715700 0.000000 0.000000 0.000000 2.431939 -2.433601 0.837764 -3.594031 -1.006078 -0.439668 -5.694797 22.317973 5.429621 22.120494 -22.904707 0.964394 0.000000 0.000000 0.000000 0.000000 0.000000 0.000000 -0.258717 -3.691475 -1.130125 -0.315646 -1.425346 0.849046 -12.537467 74.661607 -26.792800 56.356825 -32.408358 57.396587 0.000000 0.000000 0.000000 0.000000 0.000000 0.000000 1.363523 2.382752 9.532970 -0.054154 -1.900105 0.167306 -0.009674 -0.053050 -4.701877 0.000000 0.000000 0.000000 1.497182 0.867427 9.734154 0.010157 0.669317 -0.048436 113.553112 64.619823 -115.002375 0.000000 0.000000 0.000000
60.432269 75.741644 270.530158 -0.768032 -0.779485 -10.143178 -0.021877 -0.107518 10.105467 0.058829 -0.052853 -0.037133 3.919577 0.030013 -0.758929 0.000000 0.000000 0.000000 2.597988 -2.334342 0.813820 -3.751089 -0.932161 -0.432714 -6.770028 21.532455 5.196277 29.955405 -21.490662 2.588803 0.000000 0.000000 0.000000 0.000000 0.000000 0.000000 -0.420622 -3.440093 -1.093257 -0.126550 -1.680235 0.800821 -1.713203 72.367248 -32.830072 62.861254 -36.397281 62.144525 0.000000 0.000000 0.000000 0.000000 0.000000 0.000000 1.359600 2.402436 9.862970 0.102703 -2.086405 0.160277 -0.088984 0.075685 -4.983509 0.000000 0.000000 0.000000 1.591887 0.860591 10.061349 0.082128 0.596355 -0.059488 112.964623 64.681023 -113.728109 0.000000 0.000000 0.000000
60.369833 75.705789 270.516176 -0.787276 -0.760430 -10.484544 -0.018991 -0.112860 10.446370 0.059784 -0.052588 -0.037638 4.115631 0.090281 -0.804556 0.000000 0.000000 0.000000 2.868578 -2.298961 0.805859 -4.376315 -0.693053 -0.476833 -5.817531 19.302451 4.421435 31.081948 -18.629618 2.109854 0.000000 0.000000 0.000000 0.000000 0.000000 0.000000 -0.244154 -3.331903 -1.041484 -0.285128 -1.798250 0.758811 5.277536 67.660487 -33.928078 78.042462 -38.284574 72.324259 0.000000 0.000000 0.000000 0.000000 0.000000 0.000000 1.285486 2.418644 10.208351 0.375151 -2.296135 0.147320 -0.233359 0.223075 -5.226688 0.000000 0.000000 0.000000 1.619035 0.813148 10.399752 0.264514 0.620769 -0.077494 113.859164 64.349599 -114.553023 0.000000 0.000000 0.000000
60.310953 75.669760 270.501919 -0.805128 -0.743396 -10.770990 -0.020849 -0.115811 10.732330 0.058273 -0.051464 -0.038368 4.413304 0.153949 -0.874799 0.000000 0.000000 0.000000 3.011336 -2.253984 0.793999 -5.132095 -0.341967 -0.556911 -3.331216 17.212149 3.867188 29.679872 -15.881596 0.867713 0.000000 0.000000 0.000000 0.000000 0.000000 0.000000 0.102403 -3.381787 -1.002907 -0.609855 -1.765315 0.740526 3.115998 69.608557 -34.038483 72.572212 -40.444397 70.164795 0.000000 0.000000 0.000000 0.000000 0.000000 0.000000 1.310230 2.435744 10.490211 0.409466 -2.405812 0.147587 -0.265098 0.302200 -5.336034 0.000000 0.000000 0.000000 1.643157 0.733651 10.681601 0.465472 0.739062 -0.096357 115.970089 63.675350 -117.401525 0.000000 0.000000 0.000000
60.261164 75.636726 270.493578 -0.816283 -0.731810 -10.966142 -0.025548 -0.117735 10.927121 0.055449 -0.049435 -0.039027 4.691978 0.201804 -0.941030 0.000000 0.000000 0.000000 3.078021 -2.172054 0.772797 -5.870385 0.039907 -0.641049 -0.961201 14.195924 3.099807 27.015984 -12.553443 -0.425071 0.000000 0.000000 0.000000 0.000000 0.000000 0.000000 0.673899 -3.790758 -1.014061 -1.166861 -1.373808 0.793327 4.171510 69.250221 -34.455052 44.343836 -43.184775 51.247031 0.000000 0.000000 0.000000 0.000000 0.000000 0.000000 1.209576 2.484302 10.686891 0.635900 -2.504667 0.144586 -0.400189 0.330973 -5.309617 0.000000 0.000000 0.000000 1.655952 0.614505 10.870261 0.585093 0.879225 -0.102947 119.023940 62.620340 -121.805291 0.000000 0.000000 0.000000
60.224281 75.608433 270.487193 -0.808702 -0.721107 -11.092476 -0.026531 -0.118518 11.053866 0.052810 -0.046464 -0.038768 4.862972 0.203054 -0.985777 0.000000 0.000000 0.000000 2.887418 -1.984804 0.722400 -6.138560 0.219764 -0.687028 0.808598 11.159744 2.354178 26.104255 -11.018801 -0.807496 0.000000 0.000000 0.000000 0.000000 0.000000 0.000000 0.981098 -4.263024 -1.072286 -1.484303 -0.917637 0.883621 4.785812 68.882027 -34.570605 31.880119 -44.209766 43.302415 0.000000 0.000000 0.000000 0.000000 0.000000 0.000000 1.452148 2.416274 10.800673 0.133022 -2.238662 0.161564 -0.136655 0.172385 -5.330075 0.000000 0.000000 0.000000 1.615976 0.453282 10.990798 0.685641 1.084895 -0.103642 122.368200 61.217281 -126.780962 0.000000 0.000000 0.000000
